<svg width="72" height="72" viewBox="0 0 72 72" fill="none" xmlns="http://www.w3.org/2000/svg">
  <rect x="4" y="4" width="64" height="64" rx="22" fill="#F5E9DA"/>
  <g transform="translate(4 3)" stroke="#B86524" stroke-width="3" stroke-linecap="round" stroke-linejoin="round" fill="none">
    <path d="M20 12 H44 V28 C44 39 37 46 32 48 C27 46 20 39 20 28 V12Z"/><path d="M24 18 H40"/><path d="M26 58 L32 48 L38 58"/><path d="M12 20 H20 C20 32 16 38 10 40 C8 31 8 24 12 20Z"/><path d="M52 20 H44 C44 32 48 38 54 40 C56 31 56 24 52 20Z"/>
  </g>
</svg>